<svg width="66" height="66" viewBox="0 0 66 66" fill="none" xmlns="http://www.w3.org/2000/svg">
<path d="M59.5515 35.2481C59.2615 36.0281 58.7315 36.7981 57.9815 37.5481C55.4015 40.1281 53.9715 43.5681 53.9715 47.2181V47.7581C53.9715 50.1981 52.5115 52.4381 50.2515 53.4681C49.4915 53.8081 48.5715 53.9881 47.5115 53.9881H47.2115C43.5615 53.9881 40.1215 55.4081 37.5415 57.9981L37.3715 58.1681C36.1915 59.3481 34.5915 59.9781 32.9615 59.9781C32.2015 59.9781 31.4415 59.8381 30.7115 59.5681C29.9315 59.2681 29.1515 58.7381 28.4115 57.9981C25.8315 55.4181 22.3915 53.9881 18.7415 53.9881H18.2015C15.7515 53.9881 13.5115 52.5281 12.4915 50.2581C12.1515 49.4981 11.9815 48.5781 11.9815 47.5181V47.2281C11.9815 43.5781 10.5515 40.1381 7.96154 37.5381L7.80154 37.3881C6.07154 35.6581 5.52154 33.0381 6.40154 30.7181C6.69154 29.9381 7.22154 29.1681 7.97154 28.4181C10.5515 25.8381 11.9815 22.3981 11.9815 18.7481V18.2081C11.9815 15.7581 13.4415 13.5181 15.7115 12.4981C16.4615 12.1581 17.3815 11.9881 18.4415 11.9881H18.7415C22.3915 11.9881 25.8315 10.5681 28.4115 7.97807L28.5815 7.80807C30.3115 6.07807 32.9315 5.52807 35.2415 6.40807C36.0215 6.70807 36.8015 7.23807 37.5415 7.97807C40.1215 10.5581 43.5615 11.9881 47.2115 11.9881H47.7515C50.2015 11.9881 52.4415 13.4481 53.4615 15.7181C53.8015 16.4781 53.9715 17.3981 53.9715 18.4581V18.7481C53.9715 22.3981 55.3915 25.8381 57.9815 28.4281L58.1515 28.5981C59.8815 30.3281 60.4315 32.9481 59.5515 35.2681V35.2481Z" fill="#FCE7D0"/>
<path d="M32.9778 18.9781C31.3278 18.9781 29.9778 20.3281 29.9778 21.9781V28.9781C29.9778 30.6281 31.3278 31.9781 32.9778 31.9781C34.6278 31.9781 35.9778 30.6281 35.9778 28.9781V21.9781C35.9778 20.3281 34.6278 18.9781 32.9778 18.9781Z" fill="#F08315"/>
<path d="M34.6378 40.4781C34.4878 40.3881 34.3078 40.2881 34.1278 40.2081C33.9378 40.1281 33.7578 40.0781 33.5778 40.0381C33.3778 39.9981 33.1778 39.9681 32.9778 39.9681C32.7778 39.9681 32.5978 39.9881 32.4178 40.0281C32.2178 40.0681 32.0378 40.1181 31.8378 40.2081C31.6278 40.2981 31.4578 40.3881 31.3178 40.4781C31.1478 40.5981 30.9878 40.7281 30.8578 40.8481C30.7278 40.9781 30.5978 41.1381 30.4778 41.3181C30.3878 41.4681 30.2878 41.6481 30.2178 41.8281C30.1378 42.0181 30.0778 42.1981 30.0478 42.3781C30.0078 42.5981 29.9878 42.7881 29.9878 42.9681C29.9878 43.1481 30.0078 43.3381 30.0478 43.5581C30.0778 43.7381 30.1378 43.9181 30.2178 44.1081C30.2978 44.2981 30.3878 44.4781 30.4978 44.6481C30.5978 44.7981 30.7378 44.9581 30.8778 45.1081C30.9878 45.2081 31.1478 45.3481 31.3278 45.4681C31.4778 45.5581 31.6578 45.6581 31.8378 45.7281C32.0278 45.8081 32.2178 45.8681 32.3978 45.8981C32.8378 45.9781 33.1478 45.9781 33.5778 45.8981C33.7578 45.8681 33.9378 45.8081 34.1278 45.7281C34.3178 45.6481 34.4978 45.5581 34.6678 45.4481C34.8178 45.3481 34.9778 45.2081 35.1278 45.0681C35.2278 44.9581 35.3678 44.7981 35.4878 44.6181C35.5778 44.4781 35.6678 44.2981 35.7478 44.1081C35.8278 43.9181 35.8878 43.7281 35.9178 43.5581C35.9578 43.3381 35.9778 43.1481 35.9778 42.9681C35.9778 42.1881 35.6478 41.3981 35.0978 40.8481C34.9678 40.7281 34.8078 40.5881 34.6378 40.4681V40.4781Z" fill="#F08315"/>
<path d="M62.2278 24.1681C60.7778 22.7181 59.9778 20.7881 59.9778 18.7381V18.4481C59.9778 16.5381 59.6278 14.7881 58.9378 13.2481C56.9478 8.83809 52.5678 5.98809 47.7678 5.98809H47.2278C45.1778 5.98809 43.2478 5.18809 41.7978 3.73809C40.4478 2.38809 38.9578 1.39809 37.3778 0.798093C32.8578 -0.911907 27.7378 0.178093 24.3478 3.56809L24.1778 3.73809C22.7278 5.18809 20.7978 5.98809 18.7478 5.98809H18.4478C16.5278 5.98809 14.7878 6.33809 13.2478 7.03809C8.83778 9.02809 5.98778 13.4081 5.98778 18.2081V18.7481C5.98778 20.7981 5.18778 22.7281 3.73778 24.1781C2.38778 25.5281 1.39778 27.0181 0.797784 28.5981C-0.912216 33.1181 0.177783 38.2381 3.57778 41.6381L3.73778 41.7981C5.19778 43.2581 5.98778 45.1781 5.98778 47.2381V47.5281C5.98778 49.4381 6.33778 51.1881 7.02778 52.7281C9.01778 57.1381 13.3978 59.9881 18.1978 59.9881H18.7378C20.7878 59.9881 22.7178 60.7881 24.1678 62.2381C25.5178 63.5881 27.0078 64.5781 28.5878 65.1781C29.9878 65.7081 31.4578 65.9781 32.9578 65.9781C36.1978 65.9781 39.3478 64.6781 41.6178 62.4081L41.7878 62.2381C43.2378 60.7881 45.1678 59.9881 47.2178 59.9881H47.5178C49.4278 59.9881 51.1778 59.6381 52.7178 58.9381C57.1278 56.9481 59.9778 52.5581 59.9778 47.7681V47.2281C59.9778 45.1781 60.7778 43.2481 62.2278 41.7981C63.5778 40.4481 64.5678 38.9581 65.1678 37.3781C66.8778 32.8581 65.7878 27.7381 62.3978 24.3481L62.2278 24.1781V24.1681ZM59.5478 35.2481C59.2578 36.0281 58.7278 36.7981 57.9778 37.5481C55.3978 40.1281 53.9678 43.5681 53.9678 47.2181V47.7581C53.9678 50.1981 52.5078 52.4381 50.2478 53.4681C49.4878 53.8081 48.5678 53.9881 47.5078 53.9881H47.2078C43.5578 53.9881 40.1178 55.4081 37.5378 57.9981L37.3678 58.1681C36.1878 59.3481 34.5878 59.9781 32.9578 59.9781C32.1978 59.9781 31.4378 59.8381 30.7078 59.5681C29.9278 59.2681 29.1478 58.7381 28.4078 57.9981C25.8278 55.4181 22.3878 53.9881 18.7378 53.9881H18.1978C15.7478 53.9881 13.5078 52.5281 12.4878 50.2581C12.1478 49.4981 11.9778 48.5781 11.9778 47.5181V47.2281C11.9778 43.5781 10.5478 40.1381 7.95778 37.5381L7.79778 37.3881C6.06778 35.6581 5.51778 33.0381 6.39778 30.7181C6.68778 29.9381 7.21778 29.1681 7.96778 28.4181C10.5478 25.8381 11.9778 22.3981 11.9778 18.7481V18.2081C11.9778 15.7581 13.4378 13.5181 15.7078 12.4981C16.4578 12.1581 17.3778 11.9881 18.4378 11.9881H18.7378C22.3878 11.9881 25.8278 10.5681 28.4078 7.97809L28.5778 7.80809C30.3078 6.07809 32.9278 5.52809 35.2378 6.40809C36.0178 6.70809 36.7978 7.23809 37.5378 7.97809C40.1178 10.5581 43.5578 11.9881 47.2078 11.9881H47.7478C50.1978 11.9881 52.4378 13.4481 53.4578 15.7181C53.7978 16.4781 53.9678 17.3981 53.9678 18.4581V18.7481C53.9678 22.3981 55.3878 25.8381 57.9778 28.4281L58.1478 28.5981C59.8778 30.3281 60.4278 32.9481 59.5478 35.2681V35.2481Z" fill="#F08315"/>
</svg>
